<?xml version="1.0" encoding="UTF-8" standalone="no"?>
<!-- Created with Inkscape (http://www.inkscape.org/) -->

<svg
   xmlns:dc="http://purl.org/dc/elements/1.1/"
   xmlns:cc="http://creativecommons.org/ns#"
   xmlns:rdf="http://www.w3.org/1999/02/22-rdf-syntax-ns#"
   xmlns:svg="http://www.w3.org/2000/svg"
   xmlns="http://www.w3.org/2000/svg"
   xmlns:sodipodi="http://sodipodi.sourceforge.net/DTD/sodipodi-0.dtd"
   xmlns:inkscape="http://www.inkscape.org/namespaces/inkscape"
   id="svg2"
   version="1.1"
   inkscape:version="0.48.3.1 r9886"
   width="322"
   height="362"
   sodipodi:docname="rhg_monogramm_0002.svg">
  <metadata
     id="metadata8">
    <rdf:RDF>
      <cc:Work
         rdf:about="">
        <dc:format>image/svg+xml</dc:format>
        <dc:type
           rdf:resource="http://purl.org/dc/dcmitype/StillImage" />
        <dc:title></dc:title>
      </cc:Work>
    </rdf:RDF>
  </metadata>
  <defs
     id="defs6" />
  <sodipodi:namedview
     pagecolor="#ffffff"
     bordercolor="#666666"
     borderopacity="1"
     objecttolerance="10"
     gridtolerance="10"
     guidetolerance="10"
     inkscape:pageopacity="0"
     inkscape:pageshadow="2"
     inkscape:window-width="1280"
     inkscape:window-height="1004"
     id="namedview4"
     showgrid="false"
     inkscape:zoom="2.2624309"
     inkscape:cx="173.95195"
     inkscape:cy="199.14461"
     inkscape:window-x="0"
     inkscape:window-y="0"
     inkscape:window-maximized="1"
     inkscape:current-layer="layer1" />
  <g
     inkscape:groupmode="layer"
     id="layer1"
     inkscape:label="trace"
     style="display:inline">
    <g
       id="g2987"
       style="fill:#000000">
      <path
         style="fill:#000000;fill-opacity:1"
         d="m 254.99043,353.4756 c -1.3904,-3.5436 -1.45143,-4.97627 -0.66988,-15.7256 0.44223,-6.08237 -0.50848,-5.43021 -3.67769,-4.25 -4.47179,2.43065 -7.99326,3.96446 -11.28367,5.50972 -3.38027,1.74777 -8.49063,3.09914 -10.52378,3.89016 -2.03315,0.79102 -14.31786,5.14825 -25.02477,3.67656 -18.6784,-2.56739 -28.5488,-5.59086 -46.64466,-23.5761 -7.93215,-7.88365 -13.55445,-19.67634 -14.7914,-26.14898 -1.21424,-6.35386 -0.99438,-20.83681 0.25944,-25.35136 1.25382,-4.51455 2.77424,-9.42705 5.07233,-13.81254 2.29809,-4.3855 3.57798,-7.43505 5.3733,-10.4839 1.79533,-3.04884 4.92701,-7.66398 5.81175,-8.83783 0.88473,-1.17384 2.2836,-3.12824 3.1086,-4.34311 0.825,-1.21486 2.51195,-3.40444 3.74878,-4.86573 2.81855,-3.33007 2.80647,-3.674 -0.26385,-7.51253 -3.25099,-4.06439 -3.10484,-3.86803 -9.41068,-12.64436 -2.96383,-4.125 -6.55551,-8.89755 -7.98152,-10.60567 -1.426,-1.70811 -3.44052,-4.29195 -4.4767,-5.74187 -1.03618,-1.44991 -3.06118,-3.88461 -4.5,-5.41046 -1.43882,-1.52584 -3.76275,-4.117 -5.1643,-5.75813 -2.52586,-2.95762 -10.79991,-10.70605 -16.49394,-15.44612 -1.62679,-1.35424 -5.33065,-3.4271 -8.23082,-4.60636 -2.90016,-1.17926 -5.56266,-2.43375 -5.91666,-2.78775 -0.93571,-0.93571 -5.578351,-0.75988 -7.209752,0.27305 -1.058574,0.67024 -1.22541,2.06706 -0.684951,5.73469 0.39297,2.66674 0.896414,7.54862 1.118765,10.84862 0.222351,3.3 0.641842,7.8 0.932202,10 0.290361,2.2 0.767491,5.8 1.06029,8 0.292798,2.2 1.378358,5.16426 2.412356,6.58724 2.18308,3.00435 1.75172,4.02354 -2.659433,6.2835 -3.120747,1.59885 -3.265874,1.58 -4.69847,-0.61046 C 92.768276,204.51712 91.79409,200.35 91.41646,196.5 c -0.37763,-3.85 -1.090754,-7.78582 -1.58472,-8.74627 -2.665402,-5.18252 -2.887833,-85.06109 -0.27147,-97.489413 0.542729,-2.578085 0.560435,-22.935445 0.02759,-31.722389 -0.250354,-4.128505 0.09984,-6.661862 1.14043,-8.25 2.05073,-3.12981 5.075623,-2.937873 6.345687,0.402649 1.063445,2.797071 1.353052,29.914015 0.366379,34.305423 -2.238336,9.962221 -3.118873,61.54096 -1.063498,62.29593 3.330093,1.22319 17.968972,-2.03884 22.448982,-4.61886 9.6066,-4.88424 18.49496,-10.86464 23.36303,-14.67707 7.57907,-5.90005 25.93929,-26.69727 31.54997,-37.085773 7.63051,-12.321339 12.66314,-23.634894 16.21795,-36.414227 1.52416,-4.347282 2.01857,-20.298608 0.7679,-24.774936 -1.04939,-3.755916 -7.64832,-10.377379 -12.26407,-12.305965 -8.83724,-3.692436 -23.99558,-4.433281 -39.59313,-1.935067 -5.84387,0.935997 -26.99089,8.27992 -34.62016,11.600222 C 96.618057,30.404556 89.111317,34.928076 85.112667,37 70.688628,45.050039 58.83191,54.343666 48.881787,62.733202 44.14177,66.663612 38.768564,71.767006 36.941329,74.074078 27.967843,83.395363 21.418412,93.795037 17.742115,100.5 c -4.569715,8.34465 -5.79938,15.23746 -3.377689,18.93343 2.368002,3.61403 2.031507,5.15993 -1.435774,6.59612 -4.6683601,1.9337 -6.873058,-0.74891 -7.0244654,-8.54716 C 6.7714633,103.03478 15.604687,92.166283 20.349184,84.5 25.093681,76.833717 38.598849,64.045551 45.077589,58 51.556329,51.954449 54.236965,50.249959 59.010218,46.697958 63.783471,43.145957 82.175085,30.865709 92.962768,25.44292 105.23007,19.276353 115.41985,15.011492 122.53314,12.778999 129.64643,10.546505 147.44848,5.7820221 160,5.576038 c 13.44911,-0.075523 16.91251,0.4069779 23.34473,3.2522548 18.55077,8.2058862 21.28433,27.9314772 8.13429,58.6976632 -1.66167,5.837494 -5.98537,13.392785 -7.50746,16.75446 C 182.44947,87.642091 173.50849,101.83446 170.0277,106 c -1.14897,1.375 -3.17073,4.00994 -4.49281,5.85542 -2.84757,3.97492 -12.71249,14.14278 -18.74843,19.32419 -9.63264,8.26889 -15.13563,11.98876 -24.28646,16.41693 -3.3,1.5969 -6.22125,3.04971 -6.49167,3.22846 -0.27042,0.17875 0.3157,0.77683 1.30249,1.32907 4.15944,2.32774 22.88864,20.53719 29.21587,28.40511 2.18532,2.71745 4.2289,5.16582 4.5413,5.44082 0.57168,0.50325 6.29114,7.80357 10.93201,13.95362 1.375,1.82214 3.175,4.09846 4,5.05848 0.825,0.96003 3.3,4.26456 5.5,7.3434 2.2,3.07885 4.31389,5.49589 4.69752,5.3712 0.38364,-0.12468 4.43364,-3.84694 9,-8.27168 C 199.428,195.6659 206.16961,189.78568 217,181.71598 c 3.025,-2.25392 6.21653,-5.221 10.59237,-7.90701 4.37584,-2.68601 11.8243,-8.00284 17.15763,-10.69845 3.41137,-2.10607 4.26463,-2.6539 6.43701,-4.1124 0.39527,-8.00748 0.89181,-16.29228 1.24191,-22.80795 0.38993,-7.32041 0.85409,-14.07041 1.03146,-15 0.17738,-0.92959 0.6241,-5.06517 0.99272,-9.19017 0.36862,-4.125 0.86903,-9.72266 1.11203,-12.439246 0.51977,-5.810745 3.68453,-10.084725 6.32286,-8.538974 6.24368,3.658057 7.10856,6.699899 3.11923,10.9705 -2.45038,2.62313 -2.72169,3.86051 -3.88407,17.71431 -1.30134,15.51011 -2.39211,36.29378 -1.90472,36.29291 0.15486,-2.8e-4 2.69394,-0.9174 5.6424,-2.03804 7.96348,-3.02674 14.43294,-3.36079 16.94989,-3.45805 1.17517,-0.0454 7.22983,0.21362 7.27939,-0.21823 0.44685,-3.89369 0.0503,-37.08694 -0.49699,-41.59794 -1.04455,-8.60997 2.46207,-15.060618 6.17091,-11.351782 1.08002,1.080025 1.52738,6.049462 1.91628,21.286742 0.27903,10.93279 0.60623,21.2278 0.72712,22.8778 0.12089,1.65 -0.009,8.09909 0.0936,10.12936 2.05376,0.92917 0.90585,0.47595 7.30487,3.97545 6.62425,3.62267 10.38611,8.75756 11.95483,11.59741 1.2839,2.32426 1.45281,5.60506 1.35899,8.42699 -0.14954,4.49798 -0.83885,6.07029 -2.47431,7.81625 -2.79013,2.97865 -8.24013,4.2322 -10.58859,2.66241 C 302.9567,184.70409 305.24969,180 308.03407,180 c 4.68597,0 -0.10435,-10.4336 -6.24926,-13.61126 l -3.77932,-1.9926 0.0438,10.43868 c 0.0503,12.00067 0.0943,25.89374 -0.583,28.91518 -0.47152,2.10337 -4.26485,3.33898 -4.60502,1.5 -0.0763,-0.4125 -1.23988,-8.48029 -1.37023,-17.92841 -0.23829,-17.27293 -1.1304,-25.04074 -1.30231,-26.3981 -0.3788,-0.0421 5.53455,0.78044 -2.68873,-0.46134 -8.22328,-1.24178 -18.30447,0.96294 -21.8149,1.7229 -3.51043,0.75996 -4.45763,1.25986 -6.50102,2.29754 -1.2136,1.2136 -2.74904,31.8784 -1.82849,36.51741 0.81319,4.09795 3.05756,10 3.8027,10 1.35493,0 0.96762,3.01694 -0.58686,4.57143 -2.96101,2.96101 -5.5332,1.11919 -9.52643,-6.8214 -1.42443,-2.83249 -1.94882,-19.36796 -1.04474,-32.94369 0.24517,-3.68151 0.2329,-6.90136 -0.0273,-7.15522 -0.26016,-0.25386 -4.52301,1.9519 -9.47301,4.9017 -4.95,2.94979 -9.675,5.68651 -10.5,6.0816 -1.61588,0.77384 -5.53289,3.52778 -13.59237,9.5564 -2.80081,2.09505 -5.31999,3.80918 -5.5982,3.80918 -0.85679,0 -9.89169,8.09626 -18.41291,16.5 -4.46151,4.4 -9.31804,9.02444 -10.7923,10.27653 -2.51468,2.13573 -2.58444,2.41405 -1.12795,4.5 3.04889,4.36653 16.15947,18.03118 24.05041,25.06681 12.32456,10.98869 32.14375,26.91262 35.86851,28.81893 1.15765,0.59247 4.12981,2.75431 6.60481,4.80408 6.15284,5.09573 11,7.58466 11,5.64831 0,-2.32148 -4.22194,-12.90994 -6.17133,-15.47746 -1.74134,-2.29349 -1.72848,-2.44585 0.43869,-5.19467 1.22795,-1.55753 2.83551,-2.85677 3.57235,-2.8872 1.67352,-0.0691 3.73466,2.56393 5.12702,5.99467 1.39236,3.43074 3.90957,9.36911 4.6371,14.17674 1.15521,8.14811 1.89256,10.33018 1.33427,19.40858 -0.0813,1.32206 -0.90433,8.00882 -1.25901,10.62944 l -0.64487,4.76476 c 0,0 0.41291,-0.0236 2.81103,-1.1108 2.39812,-1.08723 9.33503,-4.66767 12.1548,-6.07765 2.81977,-1.40998 7.92415,-3.54621 11.68746,-5.89903 2.03674,-1.34997 5.99369,-3.94204 7.56073,-3.94204 1.66474,0 1.68888,0.22101 0.31448,2.87882 -0.81879,1.58335 -2.06784,3.1633 -2.77568,3.51101 -0.70785,0.34771 -2.63699,1.50415 -4.28699,2.56987 -3.95858,2.5568 -14.41028,8.2739 -22.49242,12.30339 -7.71356,3.84573 -8.00526,4.58762 -8.31739,21.15388 -0.20509,10.88535 -0.21308,10.91797 -2.75786,11.25876 -2.12571,0.28467 -2.78439,-0.25006 -3.9419,-3.20013 z m -28.29817,-17.43614 c 7.5598,-1.88512 7.72906,-1.94621 18.30774,-6.60736 4.125,-1.81755 8.6631,-3.74389 10.08468,-4.28076 2.10198,-0.79383 2.61098,-1.676 2.72556,-4.72371 0.15169,-4.03498 1.24483,-9.89899 1.58842,-14.71859 0.26385,-3.70111 -0.60331,-5.38252 -7.1344,-8.27088 -2.92368,-1.29298 -7.21669,-3.65206 -9.54002,-5.24239 -2.32333,-1.59033 -7.37424,-5.01632 -11.22424,-7.61333 -7.15327,-4.82521 -13.85576,-9.89613 -18.74134,-14.17918 -1.50774,-1.32179 -2.9424,-2.28064 -3.08937,-2.40326 C 201.10003,260.85058 191.18986,252.41068 174,231.98317 173.61325,231.49768 173.32313,231 172.49584,231 c -1.56004,0 -11.65841,14.61787 -13.96414,17.90012 -2.30573,3.28225 -3.94998,7.87363 -5.52645,10.59988 -1.57647,2.72625 -4.03316,12.14671 -4.52179,16.97566 -0.2468,2.439 -3.8e-4,6.79862 0.54758,9.68804 1.03733,5.46978 5.35748,14.76119 7.21736,16.8363 1.85988,2.07511 4.73575,6.8429 8.46971,10.79342 3.73396,3.95052 8.50311,7.99224 11.06984,9.98627 2.91396,2.41258 6.11038,4.69471 8.57778,6.32289 2.4674,1.62818 13.16439,5.93638 17.59805,6.52881 8.05932,1.71469 16.77946,1.27502 24.72848,-0.59193 z"
         id="path2989"
         inkscape:connector-curvature="0"
         sodipodi:nodetypes="sscczssszzzssssssssssssssssssssssssssssccccssszccccssczzzszcsczssssssssssscsszccccssssscssssssscssssssscssssczzcssssscsssssssssssssszcssczzcsssssssscssssssssscszzsszzczcc" />
    </g>
  </g>
</svg>
